<?xml version="1.0" standalone="no"?>
<!DOCTYPE svg PUBLIC "-//W3C//DTD SVG 20010904//EN"
 "http://www.w3.org/TR/2001/REC-SVG-20010904/DTD/svg10.dtd">
<svg version="1.0" xmlns="http://www.w3.org/2000/svg"
 width="128.000000pt" height="128.000000pt" viewBox="0 0 128.000000 128.000000"
 preserveAspectRatio="xMidYMid meet">
<metadata>
Created by potrace 1.14, written by Peter Selinger 2001-2017
</metadata>
<g transform="translate(0.000000,128.000000) scale(0.100000,-0.100000)"
fill="#000000" stroke="none">
<path d="M531 1185 c-228 -63 -369 -276 -334 -504 15 -96 54 -172 124 -245
l60 -61 -10 -60 c-6 -33 -14 -76 -17 -95 -3 -19 -10 -60 -15 -90 -14 -86 -13
-90 21 -90 17 0 30 3 31 8 1 16 9 58 13 67 6 17 56 17 57 0 1 -8 3 -19 4 -25
1 -5 3 -19 4 -30 1 -16 8 -20 37 -20 19 0 33 3 31 8 -3 4 -8 27 -11 52 -3 25
-13 83 -21 129 -8 47 -13 86 -11 88 1 2 21 0 42 -5 l39 -8 3 -132 c2 -123 4
-132 22 -133 11 0 46 -1 78 -1 l57 0 0 33 c0 31 -3 34 -30 35 -67 2 -63 -4
-63 98 l-1 93 55 7 c31 3 71 13 91 21 l35 15 -7 -53 c-4 -28 -9 -61 -11 -72
-33 -174 -33 -175 6 -175 17 0 30 3 31 8 3 30 11 67 15 71 3 3 16 6 29 7 21 1
25 -5 31 -43 6 -40 9 -43 36 -43 l30 0 -6 62 c-4 34 -9 64 -11 68 -2 3 -7 29
-11 56 -3 27 -8 58 -10 69 -20 92 -18 102 30 155 49 56 90 133 105 201 13 56
7 195 -10 234 -7 17 -13 32 -14 35 -6 24 -51 94 -85 133 -104 117 -288 173
-439 132z m-87 -938 c6 -53 5 -58 -11 -55 -18 3 -19 16 -8 73 2 11 4 26 4 34
2 28 8 5 15 -52z m449 -4 c5 -47 4 -53 -13 -53 -20 0 -20 4 -1 109 3 14 9 -11
14 -56z"/>
<path d="M97 423 c-2 -5 -4 -91 -3 -193 l1 -185 30 0 30 0 0 78 0 77 32 0 33
0 0 -79 c0 -69 2 -79 19 -84 40 -10 43 3 43 191 0 99 -3 186 -7 191 -3 6 -17
11 -30 11 -23 0 -24 -3 -27 -82 l-3 -83 -30 0 -30 0 -1 70 c-1 39 -2 76 -3 83
-1 13 -47 17 -54 5z"/>
<path d="M1030 236 l0 -195 38 -3 c20 -2 56 -1 80 1 40 3 42 4 42 36 0 32 0
32 -47 31 l-48 -1 -2 85 c-1 47 -2 120 -2 163 l-1 77 -30 0 -30 0 0 -194z"/>
</g>
</svg>
